<svg xmlns="http://www.w3.org/2000/svg" width="720" height="430" viewBox="0 0 720 430" role="img" font-family="system-ui, -apple-system, Segoe UI, Roboto, Helvetica, Arial, sans-serif">
<title>§8 图 6 · 同文匿名转发灌不进独立性</title>
<rect width="720" height="430" fill="#ffffff"/>
<text x="74" y="34" fill="#1f2937" font-size="21" font-weight="600">§8 图 6 · 同文匿名转发灌不进独立性</text>
<text x="74" y="58" fill="#4b5563" font-size="14">x 轴 = 转发条数；旧口径数 SimHash 簇，新口径先折叠重复再数不同发布者。 T=0.7998 恒定（判定 unsupported）</text>
<line x1="74" y1="344.0" x2="694" y2="344.0" stroke="#e5e7eb" stroke-width="1"/>
<text x="62" y="348.0" fill="#9ca3af" font-size="13" text-anchor="end">0</text>
<line x1="74" y1="293.6" x2="694" y2="293.6" stroke="#e5e7eb" stroke-width="1"/>
<text x="62" y="297.6" fill="#9ca3af" font-size="13" text-anchor="end">1</text>
<line x1="74" y1="243.2" x2="694" y2="243.2" stroke="#e5e7eb" stroke-width="1"/>
<text x="62" y="247.2" fill="#9ca3af" font-size="13" text-anchor="end">2</text>
<line x1="74" y1="192.8" x2="694" y2="192.8" stroke="#e5e7eb" stroke-width="1"/>
<text x="62" y="196.8" fill="#9ca3af" font-size="13" text-anchor="end">3</text>
<line x1="74" y1="142.4" x2="694" y2="142.4" stroke="#e5e7eb" stroke-width="1"/>
<text x="62" y="146.4" fill="#9ca3af" font-size="13" text-anchor="end">4</text>
<line x1="74" y1="92.0" x2="694" y2="92.0" stroke="#e5e7eb" stroke-width="1"/>
<text x="62" y="96.0" fill="#9ca3af" font-size="13" text-anchor="end">5</text>
<line x1="74" y1="344.0" x2="694" y2="344.0" stroke="#1f2937" stroke-width="1.5"/>
<line x1="74" y1="92" x2="74" y2="344.0" stroke="#1f2937" stroke-width="1.5"/>
<line x1="74.0" y1="344.0" x2="74.0" y2="349.0" stroke="#1f2937" stroke-width="1.5"/>
<text x="74.0" y="366.0" fill="#1f2937" font-size="13" text-anchor="middle">0</text>
<line x1="229.0" y1="344.0" x2="229.0" y2="349.0" stroke="#1f2937" stroke-width="1.5"/>
<text x="229.0" y="366.0" fill="#1f2937" font-size="13" text-anchor="middle">2</text>
<line x1="384.0" y1="344.0" x2="384.0" y2="349.0" stroke="#1f2937" stroke-width="1.5"/>
<text x="384.0" y="366.0" fill="#1f2937" font-size="13" text-anchor="middle">4</text>
<line x1="539.0" y1="344.0" x2="539.0" y2="349.0" stroke="#1f2937" stroke-width="1.5"/>
<text x="539.0" y="366.0" fill="#1f2937" font-size="13" text-anchor="middle">6</text>
<line x1="694.0" y1="344.0" x2="694.0" y2="349.0" stroke="#1f2937" stroke-width="1.5"/>
<text x="694.0" y="366.0" fill="#1f2937" font-size="13" text-anchor="middle">8</text>
<text x="384.0" y="396" fill="#4b5563" font-size="14" text-anchor="middle">同文匿名转发条数（每 2 条一个 SimHash 簇）</text>
<text x="20" y="218.0" fill="#4b5563" font-size="14" text-anchor="middle" transform="rotate(-90 20 218.0)">independent_sources</text>
<polyline points="74.0,293.6 229.0,243.2 384.0,192.8 539.0,142.4 694.0,92.0" fill="none" stroke="#2563eb" stroke-width="3" stroke-linejoin="round" stroke-linecap="round"/>
<circle cx="74.0" cy="293.6" r="4.5" fill="#ffffff" stroke="#2563eb" stroke-width="2.5"/>
<text x="74.0" y="281.6" fill="#2563eb" font-size="13" font-weight="600" text-anchor="middle">1</text>
<circle cx="229.0" cy="243.2" r="4.5" fill="#ffffff" stroke="#2563eb" stroke-width="2.5"/>
<text x="229.0" y="231.2" fill="#2563eb" font-size="13" font-weight="600" text-anchor="middle">2</text>
<circle cx="384.0" cy="192.8" r="4.5" fill="#ffffff" stroke="#2563eb" stroke-width="2.5"/>
<text x="384.0" y="180.8" fill="#2563eb" font-size="13" font-weight="600" text-anchor="middle">3</text>
<circle cx="539.0" cy="142.4" r="4.5" fill="#ffffff" stroke="#2563eb" stroke-width="2.5"/>
<text x="539.0" y="130.4" fill="#2563eb" font-size="13" font-weight="600" text-anchor="middle">4</text>
<circle cx="694.0" cy="92.0" r="4.5" fill="#ffffff" stroke="#2563eb" stroke-width="2.5"/>
<text x="694.0" y="80.0" fill="#2563eb" font-size="13" font-weight="600" text-anchor="middle">5</text>
<polyline points="74.0,293.6 229.0,293.6 384.0,293.6 539.0,293.6 694.0,293.6" fill="none" stroke="#dc2626" stroke-width="3" stroke-linejoin="round" stroke-linecap="round"/>
<circle cx="74.0" cy="293.6" r="4.5" fill="#ffffff" stroke="#dc2626" stroke-width="2.5"/>
<text x="74.0" y="281.6" fill="#dc2626" font-size="13" font-weight="600" text-anchor="middle">1</text>
<circle cx="229.0" cy="293.6" r="4.5" fill="#ffffff" stroke="#dc2626" stroke-width="2.5"/>
<text x="229.0" y="281.6" fill="#dc2626" font-size="13" font-weight="600" text-anchor="middle">1</text>
<circle cx="384.0" cy="293.6" r="4.5" fill="#ffffff" stroke="#dc2626" stroke-width="2.5"/>
<text x="384.0" y="281.6" fill="#dc2626" font-size="13" font-weight="600" text-anchor="middle">1</text>
<circle cx="539.0" cy="293.6" r="4.5" fill="#ffffff" stroke="#dc2626" stroke-width="2.5"/>
<text x="539.0" y="281.6" fill="#dc2626" font-size="13" font-weight="600" text-anchor="middle">1</text>
<circle cx="694.0" cy="293.6" r="4.5" fill="#ffffff" stroke="#dc2626" stroke-width="2.5"/>
<text x="694.0" y="281.6" fill="#dc2626" font-size="13" font-weight="600" text-anchor="middle">1</text>
<line x1="74" y1="396" x2="100" y2="396" stroke="#2563eb" stroke-width="3" stroke-linecap="round"/>
<circle cx="87" cy="396" r="4.5" fill="#ffffff" stroke="#2563eb" stroke-width="2.5"/>
<text x="108" y="401" fill="#1f2937" font-size="14">旧口径（簇数，P1 之前）</text>
<line x1="374" y1="396" x2="400" y2="396" stroke="#dc2626" stroke-width="3" stroke-linecap="round"/>
<circle cx="387" cy="396" r="4.5" fill="#ffffff" stroke="#dc2626" stroke-width="2.5"/>
<text x="408" y="401" fill="#1f2937" font-size="14">新口径（不同 (source_type, publisher)）</text>
<text x="74" y="420" fill="#9ca3af" font-size="12">来源 scripts/eval_multiturn.py，时钟钉在 2026-09-29T00:00:00+00:00；旧口径自 2 条转发起就够进判级门，新口径全程不达门</text>
</svg>
